<svg xmlns="http://www.w3.org/2000/svg" fill="none" viewBox="0 0 54 33">
<g clip-path="url(#prefix__clip0)">
<path fill="#38bdf8" fill-rule="evenodd" d="M27 0c-7.2 0-11.7 3.6-13.5 10.8 2.7-3.6 5.85-4.95 9.45-4.05 2.054.513 3.522 2.004 5.147 3.653C30.744 13.09 34.808 16.2 42.75 16.2c7.2 0 11.7-3.6 13.5-10.8-2.7 3.6-5.85 4.95-9.45 4.05-2.054-.513-3.522-2.004-5.147-3.653C38.956 2.91 34.892-.2 27 0zM13.5 16.2C6.3 16.2 1.8 19.8 0 27c2.7-3.6 5.85-4.95 9.45-4.05 2.054.514 3.522 2.004 5.147 3.653C17.244 29.29 21.308 32.4 29.25 32.4c7.2 0 11.7-3.6 13.5-10.8-2.7 3.6-5.85 4.95-9.45 4.05-2.054-.513-3.522-2.004-5.147-3.653C25.456 19.11 21.392 16 13.5 16.2z" clip-rule="evenodd"/>
</g>
<defs>
<clipPath id="prefix__clip0">
<path fill="#fff" d="M0 0h54v32.4H0z"/>
</clipPath>
</defs>
</svg>